<svg width="411" height="432" viewBox="0 0 411 432" fill="none" xmlns="http://www.w3.org/2000/svg">
<path fill-rule="evenodd" clip-rule="evenodd" d="M110.947 0H0V297.493H61.2967V187.364H109.981L166.318 297.493H171.827H231.906H233.124V187.364H281.808L338.145 297.493H403.733V294.633L339.342 172.559C347.658 168.812 355.159 164.348 361.847 159.167C371.654 151.539 379.214 142.072 384.527 130.766C389.975 119.324 392.7 105.635 392.7 89.6976C392.7 70.2188 388.273 53.8049 379.419 40.4558C370.565 27.1068 357.897 17.0269 341.415 10.2161C325.069 3.40537 305.522 0 282.774 0H171.827H110.947ZM283.183 139.552H233.124V48.0158H282.774C293.671 48.0158 302.73 49.8547 309.949 53.5325C317.168 57.2103 322.549 62.5227 326.09 69.4696C329.632 76.4166 331.403 84.6576 331.403 94.1926C331.403 103.183 329.564 111.083 325.886 117.894C322.345 124.705 317.032 130.017 309.949 133.831C302.866 137.645 293.944 139.552 283.183 139.552ZM138.122 53.5325C130.903 49.8547 121.844 48.0158 110.947 48.0158H61.2967V139.552H111.356C122.117 139.552 131.039 137.645 138.122 133.831C145.205 130.017 150.518 124.705 154.059 117.894C157.737 111.083 159.576 103.183 159.576 94.1926C159.576 84.6576 157.805 76.4166 154.263 69.4696C150.722 62.5227 145.341 57.2103 138.122 53.5325Z" fill="white"/>
<path d="M34.3625 404.774L59.0069 336.318H66.2015L37.1008 414.492H31.7853L34.3625 404.774ZM8.91277 336.318L33.4497 404.774L36.1343 414.492H30.7652L1.71812 336.318H8.91277ZM79.255 336.318V414.492H72.6509V336.318H79.255ZM120.55 340.989L93.4896 414.492H86.6171L116.147 336.318H120.926L120.55 340.989ZM145.141 414.492L118.027 340.989L117.651 336.318H122.429L152.013 414.492H145.141ZM140.309 386.895V392.586H98.8051V386.895H140.309ZM212.852 377.338V405.15C211.957 406.474 210.418 407.942 208.235 409.553C206.051 411.163 203.116 412.577 199.429 413.794C195.742 414.975 191.161 415.566 185.684 415.566C181.103 415.566 176.897 414.743 173.067 413.096C169.237 411.45 165.908 409.069 163.08 405.955C160.288 402.805 158.123 399.029 156.583 394.626C155.08 390.224 154.328 385.284 154.328 379.808V370.358C154.328 364.989 155.026 360.156 156.422 355.861C157.818 351.53 159.841 347.825 162.49 344.747C165.138 341.669 168.324 339.324 172.047 337.713C175.805 336.067 180.011 335.244 184.664 335.244C190.463 335.244 195.349 336.246 199.322 338.25C203.295 340.255 206.391 343.011 208.61 346.519C210.865 349.991 212.261 353.928 212.798 358.331H206.194C205.693 355.217 204.655 352.353 203.08 349.74C201.505 347.092 199.214 344.962 196.208 343.351C193.237 341.74 189.389 340.935 184.664 340.935C180.87 340.935 177.487 341.633 174.516 343.029C171.581 344.425 169.111 346.411 167.107 348.989C165.103 351.566 163.581 354.662 162.543 358.277C161.505 361.857 160.986 365.848 160.986 370.25V379.808C160.986 384.389 161.559 388.523 162.704 392.21C163.886 395.897 165.568 399.065 167.751 401.714C169.935 404.362 172.548 406.403 175.59 407.834C178.633 409.23 182.015 409.928 185.738 409.928C189.711 409.928 193.094 409.553 195.886 408.801C198.678 408.049 200.915 407.154 202.597 406.116C204.315 405.043 205.55 404.04 206.302 403.11V382.975H185.308V377.338H212.852ZM273.745 408.855V414.492H229.771V408.855H273.745ZM231.758 336.318V414.492H225.154V336.318H231.758ZM268.268 371.378V377.016H229.771V371.378H268.268ZM273.476 336.318V342.009H229.771V336.318H273.476ZM339.362 336.318V414.492H332.704L287.764 347.7V414.492H281.16V336.318H287.764L332.812 403.11V336.318H339.362ZM396.979 395.271C396.979 393.123 396.621 391.208 395.905 389.526C395.19 387.843 394.008 386.34 392.362 385.016C390.751 383.655 388.568 382.403 385.811 381.257C383.091 380.076 379.691 378.913 375.61 377.767C371.708 376.658 368.183 375.441 365.033 374.116C361.883 372.792 359.18 371.271 356.925 369.552C354.706 367.834 353.006 365.83 351.825 363.539C350.644 361.212 350.053 358.51 350.053 355.432C350.053 352.425 350.697 349.687 351.986 347.217C353.274 344.747 355.082 342.617 357.409 340.828C359.771 339.038 362.545 337.66 365.731 336.693C368.952 335.727 372.478 335.244 376.308 335.244C381.785 335.244 386.509 336.282 390.483 338.358C394.492 340.434 397.588 343.244 399.771 346.787C401.99 350.295 403.1 354.233 403.1 358.599H396.496C396.496 355.199 395.691 352.174 394.08 349.526C392.505 346.841 390.214 344.747 387.207 343.244C384.236 341.705 380.603 340.935 376.308 340.935C372.013 340.935 368.397 341.597 365.462 342.922C362.563 344.21 360.362 345.946 358.858 348.13C357.391 350.277 356.657 352.675 356.657 355.324C356.657 357.186 357.015 358.904 357.731 360.479C358.447 362.018 359.61 363.467 361.221 364.828C362.867 366.152 365.033 367.405 367.717 368.586C370.402 369.731 373.713 370.823 377.65 371.861C381.802 373.007 385.489 374.277 388.711 375.673C391.932 377.069 394.653 378.68 396.872 380.506C399.091 382.295 400.773 384.389 401.919 386.787C403.064 389.186 403.637 391.978 403.637 395.163C403.637 398.349 402.957 401.213 401.597 403.754C400.272 406.26 398.393 408.389 395.959 410.143C393.561 411.897 390.715 413.239 387.422 414.17C384.165 415.101 380.603 415.566 376.738 415.566C373.266 415.566 369.811 415.119 366.375 414.224C362.939 413.329 359.789 411.951 356.925 410.089C354.098 408.192 351.825 405.758 350.107 402.787C348.424 399.817 347.583 396.273 347.583 392.157H354.133C354.133 395.45 354.796 398.224 356.12 400.479C357.444 402.734 359.198 404.559 361.382 405.955C363.601 407.351 366.035 408.371 368.684 409.016C371.368 409.624 374.053 409.928 376.738 409.928C380.854 409.928 384.415 409.32 387.422 408.103C390.465 406.886 392.809 405.186 394.456 403.002C396.138 400.783 396.979 398.206 396.979 395.271Z" fill="white"/>
</svg>
