<svg width="196" height="196" viewBox="0 0 196 196" fill="none" xmlns="http://www.w3.org/2000/svg">
<rect width="196" height="196" rx="98" fill="#0D1F30"/>
<path fill-rule="evenodd" clip-rule="evenodd" d="M43.6328 57.9375V138.061H60.1418V108.4H73.2539L88.4273 138.061H106.42V108.4H119.532L134.705 138.061H152.37V137.291L135.028 104.413C137.267 103.403 139.288 102.201 141.089 100.806C143.73 98.7515 145.766 96.2017 147.197 93.1567C148.665 90.0751 149.398 86.3881 149.398 82.0957C149.398 76.8495 148.206 72.4288 145.821 68.8335C143.437 65.2382 140.025 62.5233 135.586 60.689C131.183 58.8547 125.919 57.9375 119.792 57.9375H43.6328ZM119.902 95.523H106.42V70.8696H119.792C122.727 70.8696 125.167 71.3648 127.111 72.3554C129.056 73.3459 130.505 74.7767 131.459 76.6477C132.412 78.5187 132.889 80.7383 132.889 83.3064C132.889 85.7277 132.394 87.8555 131.404 89.6899C130.45 91.5242 129.019 92.955 127.111 93.9822C125.204 95.0094 122.801 95.523 119.902 95.523ZM80.8331 72.3554C78.8887 71.3648 76.4491 70.8696 73.5141 70.8696H60.1418V95.523H73.6242C76.5225 95.523 78.9254 95.0094 80.8331 93.9822C82.7408 92.955 84.1716 91.5242 85.1255 89.6899C86.116 87.8555 86.6113 85.7277 86.6113 83.3064C86.6113 80.7383 86.1344 78.5187 85.1805 76.6477C84.2267 74.7767 82.7775 73.3459 80.8331 72.3554Z" fill="white"/>
</svg>
